<?xml version="1.0" encoding="UTF-8" standalone="no"?>
<svg
   id="Calque_1"
   data-name="Calque 1"
   viewBox="0 0 24 15.4"
   version="1.1"
   sodipodi:docname="Logo_Plan de travail 1.svg"
   inkscape:version="1.1.1 (3bf5ae0d25, 2021-09-20)"
   xmlns:inkscape="http://www.inkscape.org/namespaces/inkscape"
   xmlns:sodipodi="http://sodipodi.sourceforge.net/DTD/sodipodi-0.dtd"
   xmlns="http://www.w3.org/2000/svg"
   xmlns:svg="http://www.w3.org/2000/svg">
  <sodipodi:namedview
     id="namedview17"
     pagecolor="#ffffff"
     bordercolor="#666666"
     borderopacity="1.0"
     inkscape:pageshadow="2"
     inkscape:pageopacity="0.0"
     inkscape:pagecheckerboard="0"
     showgrid="false"
     inkscape:zoom="16.506811"
     inkscape:cx="13.26725"
     inkscape:cy="6.3610105"
     inkscape:window-width="1920"
     inkscape:window-height="1112"
     inkscape:window-x="-8"
     inkscape:window-y="-8"
     inkscape:window-maximized="1"
     inkscape:current-layer="Calque_1" />
  <defs
     id="defs4">
    <style
       id="style2">
      .cls-1 {
        fill: #202020;
        stroke-width: 0px;
      }
    </style>
  </defs>
  <polygon
     class="cls-1"
     points="10.18 15.4 11.76 15.4 12.06 15.4 13.64 15.4 13.77 15.4 13.77 0 12.06 0 12.06 13.69 11.76 13.69 11.76 0 10.05 0 10.05 15.4 10.18 15.4"
     id="polygon6"
     style="fill:#000000;fill-opacity:1" />
  <path
     class="cls-1"
     d="m23.69,0h-3.59v15.4h3.72V0h-.13Zm-1.88,13.69V1.71h.3v11.97h-.3Z"
     id="path8"
     style="fill:#000000;fill-opacity:1" />
  <path
     class="cls-1"
     d="m9.62,0h-3.59v15.4h1.71v-6.84h.3v6.84h1.71V0h-.13Zm-1.88,6.84V1.71h.3v5.13h-.3Z"
     id="path10"
     style="fill:#000000;fill-opacity:1" />
  <polygon
     class="cls-1"
     points="3.72 0 2.01 0 0 0 0 .35 0 1.71 0 13.39 1.71 13.39 1.71 1.71 2.01 1.71 2.01 13.69 0 13.69 0 15.4 2.01 15.4 3.72 15.4 5.73 15.4 5.73 13.69 3.72 13.69 3.72 1.71 4.02 1.71 4.02 13.39 5.73 13.39 5.73 1.71 5.73 .35 5.73 0 3.72 0"
     id="polygon12"
     style="fill:#000000;fill-opacity:1" />
  <polygon
     class="cls-1"
     points="17.79 0 16.08 0 14.07 0 14.07 .35 14.07 1.71 14.07 13.39 15.78 13.39 15.78 1.71 16.08 1.71 16.08 13.69 14.07 13.69 14.07 15.4 16.08 15.4 17.79 15.4 19.8 15.4 19.8 13.69 17.79 13.69 17.79 1.71 18.09 1.71 18.09 13.39 19.8 13.39 19.8 1.71 19.8 .35 19.8 0 17.79 0"
     id="polygon14"
     style="fill:#000000;fill-opacity:1" />
</svg>
